<svg width="33" height="32" viewBox="0 0 33 32" fill="none" xmlns="http://www.w3.org/2000/svg">
<g clip-path="url(#clip0_6_355)" filter="url(#filter0_d_6_355)">
<g clip-path="url(#clip1_6_355)">
<path d="M20.3805 18H19.5905L19.3105 17.73C20.2905 16.59 20.8805 15.11 20.8805 13.5C20.8805 9.91 17.9705 7 14.3805 7C10.7905 7 7.88049 9.91 7.88049 13.5C7.88049 17.09 10.7905 20 14.3805 20C15.9905 20 17.4705 19.41 18.6105 18.43L18.8805 18.71V19.5L23.8805 24.49L25.3705 23L20.3805 18ZM14.3805 18C11.8905 18 9.88049 15.99 9.88049 13.5C9.88049 11.01 11.8905 9 14.3805 9C16.8705 9 18.8805 11.01 18.8805 13.5C18.8805 15.99 16.8705 18 14.3805 18Z" fill="white"/>
</g>
</g>
<defs>
<filter id="filter0_d_6_355" x="0.880493" y="0" width="32.0125" height="32" filterUnits="userSpaceOnUse" color-interpolation-filters="sRGB">
<feFlood flood-opacity="0" result="BackgroundImageFix"/>
<feColorMatrix in="SourceAlpha" type="matrix" values="0 0 0 0 0 0 0 0 0 0 0 0 0 0 0 0 0 0 127 0" result="hardAlpha"/>
<feOffset/>
<feGaussianBlur stdDeviation="2"/>
<feColorMatrix type="matrix" values="0 0 0 0 0 0 0 0 0 0 0 0 0 0 0 0 0 0 0.1 0"/>
<feBlend mode="normal" in2="BackgroundImageFix" result="effect1_dropShadow_6_355"/>
<feBlend mode="normal" in="SourceGraphic" in2="effect1_dropShadow_6_355" result="shape"/>
</filter>
<clipPath id="clip0_6_355">
<rect width="24.0125" height="24" fill="white" transform="translate(4.88049 4)"/>
</clipPath>
<clipPath id="clip1_6_355">
<rect width="24" height="24" fill="white" transform="translate(4.88049 4)"/>
</clipPath>
</defs>
</svg>
